<svg width="800" height="343" viewBox="0 0 800 343" fill="none" xmlns="http://www.w3.org/2000/svg">
<g clip-path="url(#clip0_219_1203)">
<path d="M175.595 191.272C175.602 190.22 175.393 189.177 174.979 188.21C174.566 187.242 173.957 186.37 173.192 185.648C172.427 184.926 171.521 184.37 170.531 184.014C169.541 183.658 168.489 183.511 167.439 183.58C166.39 183.649 165.366 183.934 164.431 184.417C163.497 184.9 162.672 185.571 162.008 186.387C161.345 187.204 160.856 188.148 160.573 189.162C160.291 190.175 160.22 191.236 160.366 192.279L138.382 221.082C137.444 222.96 137.081 225.072 137.337 227.155C137.593 229.238 138.458 231.199 139.823 232.792L141.547 234.805L149.46 233.222L158.427 225.305L157.372 216.332L168.45 198.915L168.435 198.903C170.374 198.779 172.194 197.922 173.524 196.504C174.853 195.087 175.594 193.216 175.595 191.272V191.272Z" fill="#FFB9B9"/>
<path d="M23.5735 332.09L19.985 318.755L69.6823 298.562L74.9783 318.243L23.5735 332.09Z" fill="#FFB8B8"/>
<path d="M11.5698 338.971L0 295.975L0.543524 295.829C4.97947 294.634 9.70811 295.251 13.6893 297.544C17.6706 299.838 20.5784 303.619 21.7731 308.058L21.7734 308.059L28.8398 334.319L11.5698 338.971Z" fill="#1F2937"/>
<path d="M92.0293 329.959L80.8676 321.838L106.866 274.895L123.34 286.882L92.0293 329.959Z" fill="#FFB8B8"/>
<path d="M87.0079 342.857L51.0162 316.669L51.3473 316.213C54.0493 312.496 58.1164 310.005 62.654 309.288C67.1916 308.57 71.8281 309.686 75.5437 312.389L75.5446 312.39L97.527 328.385L87.0079 342.857Z" fill="#1F2937"/>
<path d="M186.912 264.361L158.823 237.059C156.372 234.677 153.143 233.26 149.731 233.069C146.318 232.878 142.952 233.927 140.251 236.021L87.2148 294.973L91.9625 302.362L142.602 268.055L176.889 312.917L209.594 296.556L186.912 264.361Z" fill="#1F2937"/>
<path d="M174.78 270.167L154.207 268.583L139.309 264.969C138.467 263.656 137.245 262.631 135.805 262.032C134.365 261.432 132.777 261.287 131.252 261.616C129.728 261.945 128.34 262.732 127.275 263.872C126.21 265.012 125.519 266.45 125.293 267.994C125.068 269.538 125.319 271.114 126.013 272.511C126.708 273.908 127.812 275.059 129.178 275.811C130.545 276.563 132.108 276.879 133.659 276.717C135.21 276.556 136.675 275.924 137.857 274.906L137.855 274.917L146.822 278.611L185.33 291.806L190.077 288.111L174.78 270.167Z" fill="#FFB9B9"/>
<path d="M224.364 327.168L212.759 334.557H199.044L135.217 310.807L41.8502 327.696L39.2128 307.639L124.668 270.167L199.572 294.973L224.364 327.168Z" fill="#1F2937"/>
<path d="M199.572 198.915C210.934 198.915 220.145 189.699 220.145 178.331C220.145 166.963 210.934 157.748 199.572 157.748C188.21 157.748 179 166.963 179 178.331C179 189.699 188.21 198.915 199.572 198.915Z" fill="#FFB9B9"/>
<path d="M252.802 260.513C252.802 272.936 250.845 285.281 247.005 297.094L245.464 301.834L238.079 335.612L230.167 337.724L224.364 330.335L212.76 321.89L204.32 308.167L197.082 296.102L194.825 292.334L186.912 252.75L156.845 235.86L146.822 234.277L148.932 228.471L157.9 216.332L166.867 215.277L169.505 213.165L171.615 214.221L183.246 218.704L220.957 202.763L226.474 203.665L245.464 219.499C250.319 232.628 252.803 246.515 252.802 260.513V260.513Z" fill="#1F2937"/>
<path opacity="0.1" d="M247.046 255.916L227.002 269.111L197.082 296.102L194.825 292.334L188.495 260.667H190.077L206.43 230.583L247.046 255.916Z" fill="black"/>
<path d="M206.43 227.416L190.077 257.499L180.582 268.056L172.143 270.167L194.825 294.973L227.002 265.944L247.046 252.749L206.43 227.416Z" fill="#1F2937"/>
<path d="M183.571 163.026L181.342 163.884C181.004 163.655 180.714 163.362 180.489 163.02C180.264 162.679 180.108 162.297 180.031 161.895C179.954 161.494 179.956 161.081 180.038 160.68C180.121 160.28 180.281 159.9 180.51 159.561C180.522 159.543 180.534 159.526 180.546 159.508L176.427 159.315C179.072 155.792 182.433 152.87 186.29 150.744C190.148 148.617 194.412 147.335 198.802 146.981C203.191 146.627 207.606 147.209 211.753 148.69C215.901 150.171 219.687 152.516 222.861 155.57C223.049 154.924 225.093 156.182 225.928 157.456C226.208 156.405 228.125 161.488 228.803 165.082C229.117 163.885 230.324 165.817 229.267 167.67C229.936 167.572 230.239 169.287 229.72 170.242C230.453 169.898 230.33 171.945 229.535 173.313C230.581 173.22 229.446 194.772 213.752 193.202C212.659 188.179 212.967 188.491 211.68 182.032C211.082 181.396 210.426 180.817 209.771 180.239L206.23 177.111C202.112 173.474 198.367 168.986 192.881 167.627C189.112 166.693 186.728 166.482 188.782 162.232C186.926 163.007 185.193 164.159 183.32 164.879C183.346 164.285 183.607 163.621 183.571 163.026Z" fill="#2F2E41"/>
<path d="M209.858 184.401C211.898 184.401 213.551 182.747 213.551 180.706C213.551 178.666 211.898 177.012 209.858 177.012C207.819 177.012 206.166 178.666 206.166 180.706C206.166 182.747 207.819 184.401 209.858 184.401Z" fill="#FFB9B9"/>
<path d="M37.6642 93.4496L36.5374 110.379L53.4576 111.507L54.5844 94.5771L37.6642 93.4496Z" fill="#E6E6E6"/>
<path d="M26.7473 102.439L47.2933 103.808L45.925 124.365L25.379 122.996L26.7473 102.439ZM46.3405 104.643L27.5811 103.393L26.3318 122.162L45.0911 123.412L46.3405 104.643Z" fill="#CCCCCC"/>
<path d="M133.283 43.2486L116.704 46.813L120.266 63.4014L136.845 59.837L133.283 43.2486Z" fill="#E6E6E6"/>
<path d="M121.646 35.2139L125.972 55.3569L105.84 59.685L101.514 39.542L121.646 35.2139ZM124.909 54.6693L120.959 36.2778L102.578 40.2296L106.527 58.6211L124.909 54.6693Z" fill="#CCCCCC"/>
<path d="M115.862 122.912L103.486 134.511L115.078 146.894L127.455 135.295L115.862 122.912Z" fill="#E6E6E6"/>
<path d="M128.345 121.177L113.316 135.261L99.2395 120.225L114.268 106.14L128.345 121.177ZM113.358 133.995L127.079 121.135L114.227 107.406L100.505 120.266L113.358 133.995Z" fill="#CCCCCC"/>
<path d="M755.894 0H254.163C252.35 -2.06212e-06 250.554 0.357392 248.879 1.05178C247.203 1.74616 245.681 2.76393 244.398 4.04699C243.116 5.33005 242.099 6.85326 241.405 8.52965C240.711 10.2061 240.354 12.0028 240.354 13.8173V293.526C240.354 295.341 240.711 297.137 241.405 298.814C242.099 300.49 243.116 302.013 244.398 303.296C245.681 304.579 247.203 305.597 248.879 306.292C250.554 306.986 252.35 307.343 254.163 307.343H755.894C759.556 307.343 763.069 305.888 765.659 303.296C768.248 300.705 769.703 297.191 769.703 293.526V13.8173C769.703 10.1527 768.248 6.63825 765.659 4.047C763.069 1.45575 759.556 2.08233e-06 755.894 0V0Z" fill="#3B82F6"/>
<path d="M751.189 24.4192H258.868V302.291H751.189V24.4192Z" fill="white"/>
<path d="M504.608 16.8408C507.396 16.8408 509.657 14.5788 509.657 11.7885C509.657 8.99828 507.396 6.73633 504.608 6.73633C501.819 6.73633 499.558 8.99828 499.558 11.7885C499.558 14.5788 501.819 16.8408 504.608 16.8408Z" fill="white"/>
<path d="M610.393 302.292H258.868V24.4194L610.393 302.292Z" fill="#F2F2F2"/>
<path d="M335.902 281.498C362.037 281.498 383.225 260.299 383.225 234.149C383.225 207.998 362.037 186.799 335.902 186.799C309.766 186.799 288.578 207.998 288.578 234.149C288.578 260.299 309.766 281.498 335.902 281.498Z" fill="#3B82F6"/>
<path d="M346.436 269.736C334.794 269.736 323.413 266.282 313.732 259.81C304.052 253.338 296.507 244.14 292.051 233.377C287.596 222.615 286.43 210.773 288.702 199.348C290.973 187.922 296.579 177.428 304.812 169.191C313.044 160.954 323.533 155.344 334.952 153.072C346.371 150.799 358.207 151.965 368.963 156.423C379.719 160.881 388.913 168.43 395.381 178.116C401.85 187.802 405.302 199.189 405.302 210.838C405.302 218.573 403.779 226.232 400.821 233.377C397.863 240.523 393.527 247.016 388.061 252.485C382.594 257.954 376.105 262.293 368.963 265.253C361.821 268.213 354.167 269.736 346.436 269.736V269.736ZM346.436 152.71C334.946 152.71 323.714 156.119 314.16 162.506C304.606 168.893 297.159 177.972 292.762 188.593C288.365 199.215 287.215 210.902 289.456 222.178C291.698 233.454 297.231 243.811 305.356 251.941C313.481 260.07 323.833 265.606 335.102 267.849C346.372 270.092 358.053 268.941 368.669 264.541C379.284 260.142 388.358 252.691 394.741 243.132C401.125 233.573 404.532 222.335 404.532 210.838C404.532 203.205 403.03 195.646 400.11 188.593C397.191 181.541 392.911 175.133 387.516 169.735C382.122 164.338 375.717 160.056 368.669 157.135C361.62 154.213 354.066 152.71 346.436 152.71L346.436 152.71Z" fill="#3F3D56"/>
<path d="M637.218 168.782H591.23V178.396H637.218V168.782Z" fill="#3F3D56"/>
<path d="M680.727 116.693H547.721V120.814H680.727V116.693Z" fill="#3F3D56"/>
<path d="M680.727 132.882H547.721V137.003H680.727V132.882Z" fill="#3F3D56"/>
<path d="M680.727 149.072H547.721V153.192H680.727V149.072Z" fill="#3F3D56"/>
<path d="M716.357 41.0486H697.138V60.2781H716.357V41.0486Z" fill="#3B82F6"/>
<path d="M725.28 69.2061H701.942V45.856H725.28V69.2061ZM702.957 68.1909H724.265V46.8712H702.957L702.957 68.1909Z" fill="#CCCCCC"/>
<path d="M783.527 297.239H735.479V293.776C735.479 293.685 735.462 293.596 735.427 293.513C735.393 293.43 735.342 293.354 735.278 293.29C735.215 293.226 735.139 293.176 735.056 293.141C734.972 293.107 734.883 293.089 734.793 293.089H718.32C718.229 293.089 718.14 293.107 718.057 293.141C717.974 293.176 717.898 293.226 717.834 293.29C717.77 293.354 717.72 293.429 717.685 293.513C717.651 293.596 717.633 293.685 717.633 293.776V297.239H707.337V293.776C707.337 293.685 707.32 293.596 707.285 293.513C707.251 293.43 707.2 293.354 707.136 293.29C707.073 293.226 706.997 293.176 706.914 293.141C706.83 293.107 706.741 293.089 706.651 293.089H690.178C690.088 293.089 689.998 293.107 689.915 293.141C689.832 293.176 689.756 293.226 689.692 293.29C689.629 293.354 689.578 293.43 689.543 293.513C689.509 293.596 689.491 293.685 689.491 293.776V293.776V297.239H679.195V293.776C679.195 293.685 679.178 293.596 679.143 293.513C679.109 293.43 679.058 293.354 678.994 293.29C678.931 293.226 678.855 293.176 678.772 293.141C678.688 293.107 678.599 293.089 678.509 293.089H662.036C661.945 293.089 661.856 293.107 661.773 293.141C661.69 293.176 661.614 293.226 661.55 293.29C661.487 293.354 661.436 293.43 661.401 293.513C661.367 293.596 661.349 293.685 661.349 293.776V293.776V297.239H651.053V293.776C651.053 293.685 651.036 293.596 651.001 293.513C650.967 293.43 650.916 293.354 650.852 293.29C650.789 293.226 650.713 293.176 650.63 293.141C650.546 293.107 650.457 293.089 650.367 293.089H633.894C633.804 293.089 633.714 293.107 633.631 293.141C633.548 293.176 633.472 293.226 633.408 293.29C633.345 293.354 633.294 293.429 633.26 293.513C633.225 293.596 633.207 293.685 633.207 293.776V297.239H622.911V293.776C622.911 293.685 622.894 293.596 622.859 293.513C622.825 293.43 622.774 293.354 622.71 293.29C622.647 293.226 622.571 293.176 622.488 293.141C622.404 293.107 622.315 293.089 622.225 293.089H605.752C605.662 293.089 605.572 293.107 605.489 293.141C605.406 293.176 605.33 293.226 605.266 293.29C605.203 293.354 605.152 293.43 605.118 293.513C605.083 293.596 605.065 293.685 605.065 293.776V293.776V297.239H594.769V293.776C594.769 293.685 594.752 293.596 594.717 293.513C594.683 293.43 594.632 293.354 594.568 293.29C594.505 293.226 594.429 293.176 594.346 293.141C594.262 293.107 594.173 293.089 594.083 293.089H577.61C577.52 293.089 577.43 293.107 577.347 293.141C577.264 293.176 577.188 293.226 577.124 293.29C577.061 293.354 577.01 293.43 576.976 293.513C576.941 293.596 576.923 293.685 576.923 293.776V293.776V297.239H566.627V293.776C566.628 293.685 566.61 293.596 566.575 293.513C566.541 293.43 566.49 293.354 566.426 293.29C566.363 293.226 566.287 293.176 566.204 293.141C566.12 293.107 566.031 293.089 565.941 293.089H436.9C436.81 293.089 436.72 293.107 436.637 293.141C436.554 293.176 436.478 293.226 436.414 293.29C436.351 293.354 436.3 293.43 436.266 293.513C436.231 293.596 436.213 293.685 436.213 293.776V293.776V297.239H425.918V293.776C425.918 293.685 425.9 293.596 425.865 293.513C425.831 293.43 425.78 293.354 425.716 293.29C425.653 293.226 425.577 293.176 425.494 293.141C425.411 293.107 425.321 293.089 425.231 293.089H408.758C408.668 293.089 408.578 293.107 408.495 293.141C408.412 293.176 408.336 293.226 408.272 293.29C408.209 293.354 408.158 293.43 408.124 293.513C408.089 293.596 408.071 293.685 408.071 293.776V293.776V297.239H397.776V293.776C397.776 293.685 397.758 293.596 397.723 293.513C397.689 293.43 397.638 293.354 397.575 293.29C397.511 293.226 397.435 293.176 397.352 293.141C397.269 293.107 397.179 293.089 397.089 293.089H380.616C380.526 293.089 380.436 293.107 380.353 293.141C380.27 293.176 380.194 293.226 380.13 293.29C380.067 293.354 380.016 293.43 379.982 293.513C379.947 293.596 379.929 293.685 379.929 293.776V293.776V297.239H369.634V293.776C369.634 293.685 369.616 293.596 369.581 293.513C369.547 293.43 369.496 293.354 369.433 293.29C369.369 293.226 369.293 293.176 369.21 293.141C369.127 293.107 369.037 293.089 368.947 293.089H352.474C352.384 293.089 352.294 293.107 352.211 293.141C352.128 293.176 352.052 293.226 351.988 293.29C351.925 293.354 351.874 293.43 351.84 293.513C351.805 293.596 351.787 293.685 351.787 293.776V293.776V297.239H341.492V293.776C341.492 293.685 341.474 293.596 341.439 293.513C341.405 293.43 341.354 293.354 341.291 293.29C341.227 293.226 341.151 293.176 341.068 293.141C340.985 293.107 340.895 293.089 340.805 293.089H324.332C324.242 293.089 324.152 293.107 324.069 293.141C323.986 293.176 323.91 293.226 323.847 293.29C323.783 293.354 323.732 293.43 323.698 293.513C323.663 293.596 323.645 293.685 323.645 293.776V293.776V297.239H313.35V293.776C313.35 293.685 313.332 293.596 313.297 293.513C313.263 293.43 313.212 293.354 313.149 293.29C313.085 293.226 313.009 293.176 312.926 293.141C312.843 293.107 312.753 293.089 312.663 293.089H296.19C296.008 293.089 295.833 293.161 295.705 293.29C295.576 293.419 295.503 293.593 295.503 293.776V297.239H285.208V293.776C285.208 293.685 285.19 293.596 285.155 293.513C285.121 293.43 285.07 293.354 285.007 293.29C284.943 293.226 284.867 293.176 284.784 293.141C284.701 293.107 284.611 293.089 284.521 293.089H268.048C267.866 293.089 267.691 293.161 267.563 293.29C267.434 293.419 267.362 293.593 267.362 293.776V297.239H235.788C231.419 297.239 227.228 298.976 224.139 302.067C221.05 305.158 219.314 309.35 219.314 313.722V321.175C219.314 325.546 221.05 329.738 224.139 332.83C227.228 335.921 231.419 337.657 235.788 337.657H783.527C787.896 337.657 792.086 335.921 795.175 332.83C798.264 329.738 800 325.546 800 321.175V313.722C800 311.557 799.574 309.414 798.746 307.414C797.918 305.414 796.705 303.597 795.175 302.067C793.645 300.536 791.829 299.322 789.831 298.494C787.832 297.666 785.69 297.239 783.527 297.239V297.239Z" fill="#3B82F6"/>
</g>
<defs>
<clipPath id="clip0_219_1203">
<rect width="800" height="342.857" fill="white"/>
</clipPath>
</defs>
</svg>
